<svg xmlns="http://www.w3.org/2000/svg" viewBox="0 0 257.01 87.08"><defs><style>.cls-1,.cls-2{fill:#fff;}.cls-2{stroke:#fff;stroke-width:3px;}.cls-2,.cls-3{stroke-miterlimit:10;}.cls-3,.cls-4{fill:#1d1d1b;}.cls-3{stroke:#1d1d1b;stroke-width:0.25px;}</style></defs><g id="Layer_2" data-name="Layer 2"><g id="Layer_1-2" data-name="Layer 1"><path class="cls-1" d="M85.21,15V.26h2.64V6.2h6V.26h2.62V15H93.81V8.5h-6V15Z"/><path class="cls-1" d="M109.93,15.32a6.13,6.13,0,0,1-3.39-.94,6.34,6.34,0,0,1-2.3-2.67,9.3,9.3,0,0,1-.83-4.11,9.17,9.17,0,0,1,.83-4.1,6.09,6.09,0,0,1,2.3-2.6,6.36,6.36,0,0,1,3.39-.9,6.29,6.29,0,0,1,3.4.91,6.26,6.26,0,0,1,2.29,2.6,9.26,9.26,0,0,1,.83,4.09,9.45,9.45,0,0,1-.83,4.11,6.46,6.46,0,0,1-2.29,2.67A6.14,6.14,0,0,1,109.93,15.32Zm0-2.3a3.19,3.19,0,0,0,2-.67,4.39,4.39,0,0,0,1.33-1.89,8,8,0,0,0,.47-2.86,7.8,7.8,0,0,0-.47-2.85A4.19,4.19,0,0,0,112,2.92a3.29,3.29,0,0,0-2-.64,3.25,3.25,0,0,0-2,.64,4,4,0,0,0-1.33,1.83,8,8,0,0,0-.45,2.85,8.26,8.26,0,0,0,.45,2.86,4.23,4.23,0,0,0,1.33,1.89A3.15,3.15,0,0,0,109.93,13Z"/><path class="cls-1" d="M125.7,15V2.48h-4.23V.26h11.15V2.48h-4.26V15Z"/><path class="cls-1" d="M139.11,15V.26H148V2.48h-6.26V6.24H147V8.46h-5.3v4.36h6.49V15Z"/><path class="cls-1" d="M155.26,15V.26h2.64V12.82H164V15Z"/><path class="cls-2" d="M1.5,84.81A4.15,4.15,0,0,0,2.79,82a46,46,0,0,0,.29-5.89V35.76a45.9,45.9,0,0,0-.29-5.89A4.16,4.16,0,0,0,1.5,27v-.16H34.28l.83,6.47h-.24a16.37,16.37,0,0,0-2.74-2.86,12.65,12.65,0,0,0-4.48-1.95,33.72,33.72,0,0,0-8.39-.83H11.13a4.34,4.34,0,0,0-3.07.83,4.31,4.31,0,0,0-.83,3.07V51.36a4.29,4.29,0,0,0,.83,3.07,4.29,4.29,0,0,0,3.07.83h11.7v.83H11.13a4.34,4.34,0,0,0-3.07.83A4.34,4.34,0,0,0,7.23,60V74.52a30.47,30.47,0,0,0,.41,5.77,6.33,6.33,0,0,0,1.33,3,5.13,5.13,0,0,0,2.66,1.41V85H1.5Z"/><path class="cls-2" d="M47.25,84.86a3,3,0,0,0,.93-2,32.79,32.79,0,0,0,.21-4.26V49.4a32.79,32.79,0,0,0-.21-4.26,3,3,0,0,0-.93-2V43h5.28v.12a3,3,0,0,0-.93,2,32.79,32.79,0,0,0-.21,4.26V81.56a3.14,3.14,0,0,0,.6,2.22,3.14,3.14,0,0,0,2.22.6H65.07a12.66,12.66,0,0,0,5.52-1A8.53,8.53,0,0,0,74,80.12l.18.06-.9,4.8h-26Z"/><path class="cls-2" d="M88.77,82.82a20,20,0,0,1-7.65-7.68A22.1,22.1,0,0,1,78.33,64a22.51,22.51,0,0,1,2.79-11.25,19.87,19.87,0,0,1,7.59-7.68,21.22,21.22,0,0,1,10.68-2.73,21.6,21.6,0,0,1,10.86,2.76,20,20,0,0,1,7.65,7.68,22.1,22.1,0,0,1,2.79,11.1,22.51,22.51,0,0,1-2.79,11.25,19.87,19.87,0,0,1-7.59,7.68,21.22,21.22,0,0,1-10.68,2.73A21.6,21.6,0,0,1,88.77,82.82Zm20.43-.39a17,17,0,0,0,6-7.11,24.11,24.11,0,0,0,2.16-10.44A25.57,25.57,0,0,0,115,53.69a19.28,19.28,0,0,0-6.63-7.86A16.83,16.83,0,0,0,98.73,43a15.82,15.82,0,0,0-8.91,2.55,17,17,0,0,0-6,7.11,24.11,24.11,0,0,0-2.16,10.44A25.57,25.57,0,0,0,84,74.27a19.28,19.28,0,0,0,6.63,7.86A16.83,16.83,0,0,0,100.29,85,15.82,15.82,0,0,0,109.2,82.43Z"/><path class="cls-2" d="M129.45,50.12q-2-5.82-3.66-6.9V43h6.48v.18A1.63,1.63,0,0,0,131,44.78a4.07,4.07,0,0,0,.24,1.26l10.68,31.38q.3,1,.72,1t.78-1.08l9.42-34.62H153l11.16,34.74q.3,1,.72,1t.9-1.08l10-32a3.37,3.37,0,0,0,.12-.78q0-1.32-2.52-1.38V43h5.34v.18A4.33,4.33,0,0,0,176.19,46L164,85.46h-.24l-11-34.08q-.36-1-.84-1t-.84,1.2l-9.24,33.9h-.24Z"/><path class="cls-2" d="M188.61,84.86a3,3,0,0,0,.93-2,32.79,32.79,0,0,0,.21-4.26V49.4a32.79,32.79,0,0,0-.21-4.26,3,3,0,0,0-.93-2V43h22.14l.72,4.26h-.18a11.67,11.67,0,0,0-2.16-2,9.06,9.06,0,0,0-3.27-1.2,31.08,31.08,0,0,0-6-.45h-4.32a3.14,3.14,0,0,0-2.22.6,3.14,3.14,0,0,0-.6,2.22V60.32a3.14,3.14,0,0,0,.6,2.22,3.14,3.14,0,0,0,2.22.6H204v.6h-8.46a2.31,2.31,0,0,0-2.82,2.82v15a2.31,2.31,0,0,0,2.82,2.82H203a11.36,11.36,0,0,0,5.43-1,10,10,0,0,0,3.45-3.51l.18.06-.9,5.1h-22.5Z"/><path class="cls-2" d="M225.21,84.86a3,3,0,0,0,.93-2,32.79,32.79,0,0,0,.21-4.26V49.4a32.79,32.79,0,0,0-.21-4.26,3,3,0,0,0-.93-2V43h10.86a22.86,22.86,0,0,1,7.77,1.26A12.82,12.82,0,0,1,249.45,48a9,9,0,0,1,2.1,6,8.6,8.6,0,0,1-2,5.76,13.06,13.06,0,0,1-5.16,3.66,22.57,22.57,0,0,1-6.48,1.56q-.6,0-.6.42a1.06,1.06,0,0,0,.15.51,7.22,7.22,0,0,0,.51.75l10.5,13.26a18.3,18.3,0,0,0,3.69,3.72,7.28,7.28,0,0,0,3.39,1.2V85h-8.64V84.8a6.76,6.76,0,0,0,2.46-.3,1,1,0,0,0,.66-.9,1.72,1.72,0,0,0-.18-.78,8.34,8.34,0,0,0-.78-1.14l-11.88-15a4.82,4.82,0,0,0-1.59-1.35,4.62,4.62,0,0,0-2-.39h-1.38a2.31,2.31,0,0,0-2.82,2.82v9.66a22.14,22.14,0,0,0,.3,4.17,4.55,4.55,0,0,0,1,2.19,3.68,3.68,0,0,0,1.92,1V85h-7.32Zm10.32-20.52q6.18,0,9.45-2.82A9.48,9.48,0,0,0,248.25,54,9.48,9.48,0,0,0,245,46.4q-3.27-2.82-9.45-2.82h-3.36a3.14,3.14,0,0,0-2.22.6,3.14,3.14,0,0,0-.6,2.22V61.52a3.14,3.14,0,0,0,.6,2.22,3.14,3.14,0,0,0,2.22.6Z"/><path class="cls-1" d="M97.8,37.49c2.34,1.57,2.85,4.89,2.85,4.89A5,5,0,0,1,95.86,42,9.6,9.6,0,0,1,93.23,39a8,8,0,0,0-2.47-2S95.46,35.92,97.8,37.49Z"/><path class="cls-1" d="M103.46,33.54c.8,4.56-2.56,9-2.56,9a8.29,8.29,0,0,1-5.05-6.07,15.74,15.74,0,0,1,.66-6.64c.51-2-.4-5.25-.4-5.25S102.65,29,103.46,33.54Z"/><path class="cls-3" d="M101,42.76l-.15,0a8.6,8.6,0,0,1-5.2-6.24,15.86,15.86,0,0,1,.66-6.73c.5-1.94-.38-5.11-.39-5.14L95.73,24l.5.34c.27.18,6.63,4.54,7.44,9.14h0c.81,4.6-2.46,9-2.6,9.14Zm-4.52-17.7a11.7,11.7,0,0,1,.26,4.78,15.6,15.6,0,0,0-.66,6.55,8.09,8.09,0,0,0,4.76,5.85c.54-.77,3.12-4.69,2.42-8.66h0C102.59,29.87,98,26.19,96.46,25.06Z"/><path class="cls-4" d="M98.3,27.7A18.32,18.32,0,0,1,100.58,34a21.1,21.1,0,0,1,.31,3.36,18.82,18.82,0,0,1-.29,3.36s0,0,0,0a0,0,0,0,1,0,0c0-1.12.05-2.24,0-3.34a28.16,28.16,0,0,0-.37-3.31,25.74,25.74,0,0,0-.74-3.24A25,25,0,0,0,98.3,27.7Z"/></g></g></svg>