<svg id="Layer_1" data-name="Layer 1" xmlns="http://www.w3.org/2000/svg" viewBox="0 0 349.94 181.94"><defs><style>.cls-1{stroke:#000e03;stroke-miterlimit:10;stroke-width:3px;}.cls-2{fill:#fff;}</style></defs><path d="M135.55,63.22V48.44h2.64v5.94h6V48.44h2.62V63.22h-2.62V56.68h-6v6.54Z"/><path d="M160.27,63.5a6.13,6.13,0,0,1-3.39-.94,6.34,6.34,0,0,1-2.3-2.67,9.3,9.3,0,0,1-.83-4.11,9.17,9.17,0,0,1,.83-4.1,6.09,6.09,0,0,1,2.3-2.6,6.36,6.36,0,0,1,3.39-.9A6,6,0,0,1,166,51.69a9.26,9.26,0,0,1,.83,4.09,9.45,9.45,0,0,1-.83,4.11,6.46,6.46,0,0,1-2.29,2.67A6.14,6.14,0,0,1,160.27,63.5Zm0-2.3a3.19,3.19,0,0,0,2-.67,4.39,4.39,0,0,0,1.33-1.89,8,8,0,0,0,.47-2.86,7.8,7.8,0,0,0-.47-2.85,4.19,4.19,0,0,0-1.33-1.83,3.29,3.29,0,0,0-2-.64,3.25,3.25,0,0,0-2,.64,4,4,0,0,0-1.32,1.83,7.81,7.81,0,0,0-.46,2.85,8,8,0,0,0,.46,2.86,4.14,4.14,0,0,0,1.32,1.89A3.15,3.15,0,0,0,160.27,61.2Z"/><path d="M176.05,63.22V50.66h-4.24V48.44H183v2.22h-4.26V63.22Z"/><path d="M189.45,63.22V48.44h8.9v2.22h-6.26v3.76h5.3v2.22h-5.3V61h6.48v2.22Z"/><path d="M205.61,63.22V48.44h2.64V61h6.14v2.22Z"/><path class="cls-1" d="M51.84,133a4.11,4.11,0,0,0,1.29-2.82,46,46,0,0,0,.29-5.89V83.94a45.9,45.9,0,0,0-.29-5.89,4.11,4.11,0,0,0-1.29-2.83v-.16H84.63l.83,6.47h-.25a16,16,0,0,0-2.74-2.86,12.65,12.65,0,0,0-4.48-2,33.2,33.2,0,0,0-8.39-.83H61.47a4.31,4.31,0,0,0-3.07.83,4.34,4.34,0,0,0-.83,3.07V99.54a4.34,4.34,0,0,0,.83,3.07,4.31,4.31,0,0,0,3.07.83h11.7v.83H61.47a4.36,4.36,0,0,0-3.07.83,4.37,4.37,0,0,0-.83,3.07V122.7a30.31,30.31,0,0,0,.42,5.77,6.28,6.28,0,0,0,1.32,3A5.17,5.17,0,0,0,62,132.91v.25H51.84Z"/><path class="cls-1" d="M97.59,133a3,3,0,0,0,.93-2,32.79,32.79,0,0,0,.21-4.26V97.58a32.79,32.79,0,0,0-.21-4.26,3,3,0,0,0-.93-2v-.12h5.28v.12a3,3,0,0,0-.93,2,32.79,32.79,0,0,0-.21,4.26v32.16a2.31,2.31,0,0,0,2.82,2.82h10.86a12.66,12.66,0,0,0,5.52-1,8.53,8.53,0,0,0,3.36-3.3l.18.06-.9,4.8h-26Z"/><path class="cls-1" d="M139.11,131a20,20,0,0,1-7.65-7.68,22.1,22.1,0,0,1-2.79-11.1A22.51,22.51,0,0,1,131.46,101a19.87,19.87,0,0,1,7.59-7.68,21.22,21.22,0,0,1,10.68-2.73,21.6,21.6,0,0,1,10.86,2.76,20,20,0,0,1,7.65,7.68A22.1,22.1,0,0,1,171,112.1a22.51,22.51,0,0,1-2.79,11.25,19.87,19.87,0,0,1-7.59,7.68A21.22,21.22,0,0,1,150,133.76,21.6,21.6,0,0,1,139.11,131Zm20.43-.39a17,17,0,0,0,6-7.11,24.11,24.11,0,0,0,2.16-10.44,25.57,25.57,0,0,0-2.4-11.19A19.28,19.28,0,0,0,158.7,94a16.83,16.83,0,0,0-9.63-2.85,15.82,15.82,0,0,0-8.91,2.55,17,17,0,0,0-6,7.11A24.11,24.11,0,0,0,132,111.26a25.57,25.57,0,0,0,2.4,11.19,19.28,19.28,0,0,0,6.63,7.86,16.83,16.83,0,0,0,9.63,2.85A15.82,15.82,0,0,0,159.54,130.61Z"/><path class="cls-1" d="M179.79,98.3q-2-5.82-3.66-6.9v-.24h6.48v.18A1.63,1.63,0,0,0,181.29,93a4.07,4.07,0,0,0,.24,1.26l10.68,31.38q.3,1,.72,1t.78-1.08l9.42-34.62h.24l11.16,34.74q.3,1,.72,1t.9-1.08l10-32a3.37,3.37,0,0,0,.12-.78q0-1.32-2.52-1.38v-.18h5.34v.18a4.33,4.33,0,0,0-2.52,2.88l-12.24,39.42h-.24l-11-34.08q-.36-1-.84-1t-.84,1.2l-9.24,33.9h-.24Z"/><path class="cls-1" d="M239,133a3,3,0,0,0,.93-2,32.79,32.79,0,0,0,.21-4.26V97.58a32.79,32.79,0,0,0-.21-4.26,3,3,0,0,0-.93-2v-.12h22.14l.72,4.26h-.18a11.67,11.67,0,0,0-2.16-2,9.06,9.06,0,0,0-3.27-1.2,31.08,31.08,0,0,0-6-.45h-4.32a2.31,2.31,0,0,0-2.82,2.82V108.5a2.31,2.31,0,0,0,2.82,2.82h8.46v.6h-8.46a2.31,2.31,0,0,0-2.82,2.82v15a2.31,2.31,0,0,0,2.82,2.82h7.38a11.36,11.36,0,0,0,5.43-1.05,10,10,0,0,0,3.45-3.51l.18.06-.9,5.1H239Z"/><path class="cls-1" d="M275.55,133a3,3,0,0,0,.93-2,32.79,32.79,0,0,0,.21-4.26V97.58a32.79,32.79,0,0,0-.21-4.26,3,3,0,0,0-.93-2v-.12h10.86a22.86,22.86,0,0,1,7.77,1.26,12.82,12.82,0,0,1,5.61,3.75,9,9,0,0,1,2.1,6,8.6,8.6,0,0,1-2,5.76,13.06,13.06,0,0,1-5.16,3.66,22.57,22.57,0,0,1-6.48,1.56q-.6,0-.6.42a1.06,1.06,0,0,0,.15.51,7.22,7.22,0,0,0,.51.75l10.5,13.26a18.3,18.3,0,0,0,3.69,3.72,7.28,7.28,0,0,0,3.39,1.2v.18h-8.64V133a6.76,6.76,0,0,0,2.46-.3,1,1,0,0,0,.66-.9,1.72,1.72,0,0,0-.18-.78,8.34,8.34,0,0,0-.78-1.14l-11.88-15a4.82,4.82,0,0,0-1.59-1.35,4.62,4.62,0,0,0-2-.39h-1.38a2.31,2.31,0,0,0-2.82,2.82v9.66a22.14,22.14,0,0,0,.3,4.17,4.55,4.55,0,0,0,1,2.19,3.68,3.68,0,0,0,1.92,1v.18h-7.32Zm10.32-20.52q6.18,0,9.45-2.82a10.37,10.37,0,0,0,0-15.12q-3.27-2.82-9.45-2.82h-3.36a2.31,2.31,0,0,0-2.82,2.82V109.7a2.31,2.31,0,0,0,2.82,2.82Z"/><path d="M148.14,85.67c2.34,1.57,2.85,4.89,2.85,4.89a5,5,0,0,1-4.78-.34,9.74,9.74,0,0,1-2.64-3.08,7.88,7.88,0,0,0-2.47-2S145.81,84.1,148.14,85.67Z"/><path d="M153.8,81.72c.8,4.56-2.56,9-2.56,9a8.29,8.29,0,0,1-5.05-6.07,15.74,15.74,0,0,1,.66-6.64c.51-2-.4-5.26-.4-5.26S153,77.16,153.8,81.72Z"/><path class="cls-2" d="M151.32,90.94l-.15,0a8.6,8.6,0,0,1-5.2-6.24,15.94,15.94,0,0,1,.67-6.74c.49-1.93-.39-5.1-.4-5.14l-.16-.57.49.33c.27.19,6.64,4.55,7.44,9.15h0c.81,4.6-2.46,8.95-2.59,9.13Zm-4.51-17.7a11.72,11.72,0,0,1,.25,4.78,15.57,15.57,0,0,0-.66,6.55,8.09,8.09,0,0,0,4.76,5.85c.54-.77,3.12-4.69,2.42-8.66h0C152.93,78.05,148.32,74.36,146.81,73.24Z"/><path class="cls-2" d="M148.64,75.88a18.34,18.34,0,0,1,2.29,6.31,21.09,21.09,0,0,1,.3,3.36,19.87,19.87,0,0,1-.28,3.36h0c0-1.13.05-2.24,0-3.35a28,28,0,0,0-.37-3.3,25.74,25.74,0,0,0-.74-3.24A23.51,23.51,0,0,0,148.64,75.88Z"/></svg>